<svg width="24" height="24" viewBox="0 0 24 24" fill="none" xmlns="http://www.w3.org/2000/svg">
<path d="M19.8899 9.55029C19.8068 9.38537 19.6796 9.24669 19.5225 9.14961C19.3655 9.05253 19.1846 9.00085 18.9999 9.00029H13.9999V3.00029C14.0106 2.78097 13.9489 2.56422 13.8242 2.38349C13.6995 2.20276 13.5187 2.06809 13.3099 2.00029C13.1091 1.93423 12.8926 1.93349 12.6913 1.99817C12.4901 2.06285 12.3146 2.18962 12.1899 2.36029L4.18986 13.3603C4.08963 13.5052 4.02944 13.6739 4.01539 13.8495C4.00135 14.0251 4.03394 14.2013 4.10986 14.3603C4.17979 14.542 4.30125 14.6994 4.45935 14.8131C4.61745 14.9268 4.80531 14.9919 4.99986 15.0003H9.99986V21.0003C9.99998 21.2112 10.0669 21.4166 10.1908 21.5872C10.3147 21.7578 10.4894 21.8849 10.6899 21.9503C10.7904 21.9814 10.8947 21.9983 10.9999 22.0003C11.1577 22.0007 11.3133 21.9638 11.4541 21.8925C11.5949 21.8212 11.7168 21.7177 11.8099 21.5903L19.8099 10.5903C19.9176 10.4411 19.9821 10.265 19.9962 10.0815C20.0103 9.89805 19.9735 9.71421 19.8899 9.55029ZM11.9999 17.9203V14.0003C11.9999 13.7351 11.8945 13.4807 11.707 13.2932C11.5195 13.1056 11.2651 13.0003 10.9999 13.0003H6.99986L11.9999 6.08029V10.0003C11.9999 10.2655 12.1052 10.5199 12.2928 10.7074C12.4803 10.8949 12.7347 11.0003 12.9999 11.0003H16.9999L11.9999 17.9203Z" fill="#A969A9"/>
</svg>
