<svg width="1" height="53" viewBox="0 0 1 53" fill="none" xmlns="http://www.w3.org/2000/svg">
<mask id="path-1-inside-1_3_924" fill="white">
<path d="M0 0H1V53H0V0Z"/>
</mask>
<path d="M-0.4 0V1.44545H0.4V0H-0.4ZM-0.4 3.37273V6.26364H0.4V3.37273H-0.4ZM-0.4 8.19091V11.0818H0.4V8.19091H-0.4ZM-0.4 13.0091V15.9H0.4V13.0091H-0.4ZM-0.4 17.8273V20.7182H0.4V17.8273H-0.4ZM-0.4 22.6455V25.5364H0.4V22.6455H-0.4ZM-0.4 27.4636V30.3545H0.4V27.4636H-0.4ZM-0.4 32.2818V35.1727H0.4V32.2818H-0.4ZM-0.4 37.1V39.9909H0.4V37.1H-0.4ZM-0.4 41.9182V44.8091H0.4V41.9182H-0.4ZM-0.4 46.7364V49.6273H0.4V46.7364H-0.4ZM-0.4 51.5546V53H0.4V51.5546H-0.4ZM-0.8 0V1.44545H0.8V0H-0.8ZM-0.8 3.37273V6.26364H0.8V3.37273H-0.8ZM-0.8 8.19091V11.0818H0.8V8.19091H-0.8ZM-0.8 13.0091V15.9H0.8V13.0091H-0.8ZM-0.8 17.8273V20.7182H0.8V17.8273H-0.8ZM-0.8 22.6455V25.5364H0.8V22.6455H-0.8ZM-0.8 27.4636V30.3545H0.8V27.4636H-0.8ZM-0.8 32.2818V35.1727H0.8V32.2818H-0.8ZM-0.8 37.1V39.9909H0.8V37.1H-0.8ZM-0.8 41.9182V44.8091H0.8V41.9182H-0.8ZM-0.8 46.7364V49.6273H0.8V46.7364H-0.8ZM-0.8 51.5546V53H0.8V51.5546H-0.8Z" fill="#1E1E2F" fill-opacity="0.6" mask="url(#path-1-inside-1_3_924)"/>
</svg>
