<svg width="124" height="36" viewBox="0 0 124 36" fill="none" xmlns="http://www.w3.org/2000/svg">
<g clip-path="url(#clip0_3_749)">
<path d="M17.324 13.4205C17.2331 12.5038 16.8429 11.7917 16.1535 11.2841C15.4641 10.7765 14.5285 10.5227 13.3467 10.5227C12.5437 10.5227 11.8656 10.6364 11.3126 10.8636C10.7596 11.0833 10.3353 11.3902 10.0399 11.7841C9.75201 12.178 9.60807 12.625 9.60807 13.125C9.59292 13.5417 9.68004 13.9053 9.86943 14.2159C10.0664 14.5265 10.3353 14.7955 10.6763 15.0227C11.0172 15.2424 11.4111 15.4356 11.8581 15.6023C12.305 15.7614 12.7823 15.8977 13.2899 16.0114L15.3808 16.5114C16.3959 16.7386 17.3278 17.0417 18.1763 17.4205C19.0247 17.7992 19.7596 18.2652 20.3808 18.8182C21.002 19.3712 21.4831 20.0227 21.824 20.7727C22.1725 21.5227 22.3505 22.3826 22.3581 23.3523C22.3505 24.7765 21.9869 26.0114 21.2672 27.0568C20.555 28.0947 19.5247 28.9015 18.1763 29.4773C16.8353 30.0455 15.2179 30.3295 13.324 30.3295C11.4452 30.3295 9.80883 30.0417 8.41489 29.4659C7.02852 28.8902 5.94519 28.0379 5.16489 26.9091C4.39216 25.7727 3.98686 24.3674 3.94898 22.6932H8.71034C8.76337 23.4735 8.98686 24.125 9.3808 24.6477C9.78231 25.1629 10.3164 25.553 10.9831 25.8182C11.6573 26.0758 12.4187 26.2045 13.2672 26.2045C14.1005 26.2045 14.824 26.0833 15.4376 25.8409C16.0588 25.5985 16.5399 25.2614 16.8808 24.8295C17.2217 24.3977 17.3922 23.9015 17.3922 23.3409C17.3922 22.8182 17.2369 22.3788 16.9263 22.0227C16.6232 21.6667 16.1763 21.3636 15.5853 21.1136C15.002 20.8636 14.2861 20.6364 13.4376 20.4318L10.9035 19.7955C8.9414 19.3182 7.39216 18.572 6.2558 17.5568C5.11943 16.5417 4.55504 15.1742 4.56261 13.4545C4.55504 12.0455 4.93004 10.8144 5.68761 9.76136C6.45277 8.70833 7.50201 7.88636 8.83534 7.29545C10.1687 6.70454 11.6838 6.40909 13.3808 6.40909C15.1081 6.40909 16.6156 6.70454 17.9035 7.29545C19.199 7.88636 20.2066 8.70833 20.9263 9.76136C21.6459 10.8144 22.0172 12.0341 22.0399 13.4205H17.324ZM31.2432 24.9773L31.2545 19.1705H31.9591L37.55 12.5455H43.1068L35.5955 21.3182H34.4477L31.2432 24.9773ZM26.8568 30V6.72727H31.6977V30H26.8568ZM37.7659 30L32.6295 22.3977L35.8568 18.9773L43.4364 30H37.7659ZM46.7618 30V12.5455H51.6027V30H46.7618ZM49.1936 10.2955C48.4739 10.2955 47.8565 10.0568 47.3414 9.57954C46.8338 9.0947 46.58 8.51515 46.58 7.84091C46.58 7.17424 46.8338 6.60227 47.3414 6.125C47.8565 5.64015 48.4739 5.39773 49.1936 5.39773C49.9133 5.39773 50.527 5.64015 51.0345 6.125C51.5497 6.60227 51.8073 7.17424 51.8073 7.84091C51.8073 8.51515 51.5497 9.0947 51.0345 9.57954C50.527 10.0568 49.9133 10.2955 49.1936 10.2955ZM61.6015 6.72727V30H56.7606V6.72727H61.6015ZM71.6002 6.72727V30H66.7593V6.72727H71.6002ZM84.7126 30.3409C82.9172 30.3409 81.3717 29.9773 80.0762 29.25C78.7884 28.5152 77.7959 27.4773 77.099 26.1364C76.402 24.7879 76.0535 23.1932 76.0535 21.3523C76.0535 19.5568 76.402 17.9811 77.099 16.625C77.7959 15.2689 78.777 14.2121 80.0422 13.4545C81.3149 12.697 82.8073 12.3182 84.5194 12.3182C85.6709 12.3182 86.7429 12.5038 87.7353 12.875C88.7353 13.2386 89.6066 13.7879 90.349 14.5227C91.099 15.2576 91.6823 16.1818 92.099 17.2955C92.5156 18.4015 92.724 19.697 92.724 21.1818V22.5114H77.9853V19.5114H88.1672C88.1672 18.8144 88.0156 18.197 87.7126 17.6591C87.4096 17.1212 86.9891 16.7008 86.4512 16.3977C85.9209 16.0871 85.3035 15.9318 84.599 15.9318C83.8641 15.9318 83.2126 16.1023 82.6444 16.4432C82.0838 16.7765 81.6444 17.2273 81.3262 17.7955C81.0081 18.3561 80.8452 18.9811 80.8376 19.6705V22.5227C80.8376 23.3864 80.9967 24.1326 81.3149 24.7614C81.6406 25.3902 82.099 25.875 82.6899 26.2159C83.2808 26.5568 83.9816 26.7273 84.7922 26.7273C85.33 26.7273 85.8225 26.6515 86.2694 26.5C86.7164 26.3485 87.099 26.1212 87.4172 25.8182C87.7353 25.5152 87.9778 25.1439 88.1444 24.7045L92.6217 25C92.3944 26.0758 91.9285 27.0152 91.224 27.8182C90.527 28.6136 89.6255 29.2348 88.5194 29.6818C87.4209 30.1212 86.152 30.3409 84.7126 30.3409ZM100.896 12.5455L104.101 18.6477L107.385 12.5455H112.351L107.294 21.2727L112.487 30H107.544L104.101 23.9659L100.714 30H95.7142L100.896 21.2727L95.896 12.5455H100.896Z" fill="black"/>
<path d="M119.886 30H116.014V26.192H119.886V30Z" fill="#97C680"/>
</g>
<defs>
<clipPath id="clip0_3_749">
<rect width="124" height="36" fill="white"/>
</clipPath>
</defs>
</svg>
