<svg width="40" height="40" viewBox="0 0 40 40" fill="none" xmlns="http://www.w3.org/2000/svg">
<g clip-path="url(#clip0_3_719)">
<path fill-rule="evenodd" clip-rule="evenodd" d="M16.1423 13.9522C16.1423 14.9692 15.3767 15.783 14.1475 15.783H14.125C12.9414 15.783 12.1763 14.9692 12.1763 13.9522C12.1763 12.9136 12.9647 12.1226 14.1707 12.1226C15.3767 12.1226 16.1194 12.9136 16.1423 13.9522ZM15.9101 17.2288V27.8211H12.3847V17.2288H15.9101ZM28.6238 27.8211L28.624 21.7479C28.624 18.4944 26.8848 16.9801 24.5649 16.9801C22.6932 16.9801 21.8552 18.0082 21.3873 18.7295V17.2291H17.8615C17.908 18.2231 17.8615 27.8214 17.8615 27.8214H21.3873V21.9058C21.3873 21.5893 21.4102 21.2735 21.5034 21.0468C21.7582 20.4144 22.3383 19.7596 23.3122 19.7596C24.5884 19.7596 25.0986 20.7309 25.0986 22.1543V27.8211H28.6238Z" fill="#1E1E2F"/>
</g>
<rect x="0.5" y="0.5" width="39" height="39" rx="19.5" stroke="#1E1E2F" stroke-opacity="0.1"/>
<defs>
<clipPath id="clip0_3_719">
<rect width="40" height="40" rx="20" fill="white"/>
</clipPath>
</defs>
</svg>
