<svg width="40" height="40" viewBox="0 0 40 40" fill="none" xmlns="http://www.w3.org/2000/svg">
<g clip-path="url(#clip0_3_713)">
<path d="M28.8608 13.7099H23.2884V15.2725H28.8828L28.8608 13.7099ZM27.6848 24.4596C27.2621 24.742 26.7628 24.8853 26.256 24.8697C25.9204 24.9049 25.5813 24.87 25.2598 24.767C24.9383 24.664 24.6413 24.4952 24.3875 24.2712C23.9182 23.7347 23.6738 23.0354 23.706 22.3207H30.9821C31.0346 21.5766 30.9715 20.8288 30.7953 20.1043C30.6248 19.415 30.3264 18.7645 29.916 18.1871C29.5028 17.627 28.9693 17.1685 28.3552 16.8461C27.6721 16.5065 26.9186 16.3356 26.157 16.3474C25.4408 16.3422 24.7307 16.4816 24.0687 16.7575C23.4626 17.0151 22.9133 17.3919 22.4531 17.8657C21.9941 18.349 21.6386 18.9224 21.4089 19.5502C21.1624 20.2279 21.0395 20.945 21.0462 21.6669C21.0349 22.399 21.154 23.1272 21.3979 23.8168C21.6051 24.4414 21.9339 25.0178 22.3651 25.5124C22.8113 25.998 23.3596 26.3767 23.9698 26.6206C24.6503 26.882 25.374 27.0099 26.1021 26.9974C27.1236 27.0295 28.1322 26.7599 29.0037 26.2217C29.884 25.591 30.5178 24.6697 30.7953 23.6174H28.3662C28.2362 23.9655 27.9969 24.2612 27.6848 24.4596ZM23.9149 19.8937C24.0004 19.6174 24.1424 19.3623 24.3317 19.1447C24.521 18.9271 24.7534 18.7519 25.014 18.6304C25.359 18.4738 25.7348 18.398 26.1131 18.4087C26.3863 18.3852 26.6614 18.4215 26.9194 18.5153C27.1774 18.609 27.4123 18.7579 27.6079 18.9518C27.9813 19.4127 28.221 19.9689 28.3003 20.5587H23.739C23.7568 20.3335 23.7973 20.1107 23.8599 19.8937H23.9149ZM18.1006 19.3618C18.66 19.1269 19.1461 18.744 19.5074 18.2536C19.8396 17.7327 20.0046 17.1213 19.9801 16.5026C20.0016 15.9383 19.8925 15.3768 19.6613 14.8624C19.4671 14.4168 19.1554 14.0335 18.7601 13.7542C18.3409 13.4638 17.865 13.2673 17.3642 13.1779C16.7716 13.0526 16.1671 12.9932 15.5617 13.0006H9V26.942H15.7045C16.3164 26.9425 16.9258 26.8643 17.5181 26.7093C18.0794 26.5629 18.6113 26.3191 19.0898 25.989C19.5533 25.665 19.9308 25.2312 20.1889 24.7256C20.4746 24.1602 20.6144 23.5313 20.5956 22.897C20.6164 22.111 20.3977 21.3374 19.9691 20.6806C19.5081 20.02 18.8244 19.5512 18.0456 19.3618H18.1006ZM12.0445 15.3833H14.8912C15.1527 15.383 15.4138 15.4052 15.6716 15.4498C15.9089 15.4853 16.1369 15.5681 16.342 15.6936C16.5402 15.8066 16.7009 15.9763 16.8036 16.1812C16.9309 16.4269 16.9916 16.7022 16.9795 16.9791C17 17.2177 16.9638 17.4577 16.874 17.6793C16.7841 17.9009 16.6432 18.0978 16.4629 18.2536C16.0696 18.5262 15.5989 18.6624 15.122 18.6415H12.0445V15.3833ZM17.3642 23.6284C17.2513 23.8543 17.0805 24.0456 16.8696 24.1826C16.6501 24.3202 16.4083 24.4177 16.1552 24.4707C15.8739 24.5342 15.5861 24.5639 15.2979 24.5593H12.0006V20.736H15.2979C15.8637 20.711 16.4225 20.8703 16.8916 21.1904C17.1035 21.3821 17.2677 21.6215 17.3708 21.8891C17.4739 22.1567 17.5131 22.4451 17.4851 22.7308C17.5148 23.0354 17.4734 23.3428 17.3642 23.6284Z" fill="#1E1E2F"/>
</g>
<rect x="0.5" y="0.5" width="39" height="39" rx="19.5" stroke="#1E1E2F" stroke-opacity="0.1"/>
<defs>
<clipPath id="clip0_3_713">
<rect width="40" height="40" rx="20" fill="white"/>
</clipPath>
</defs>
</svg>
